<svg xmlns="http://www.w3.org/2000/svg" viewBox="0 0 1080 1920" width="1080" height="1920" role="img" aria-label="Reel cover: Start Here"><title>Reel cover: Start Here</title><rect width="1080" height="1920" fill="#EFEBE3"/><path fill="#8F8B83" d="M387 580.57C383.43 580.57 380.54 579.29 380.54 577.72C380.54 576.14 383.43 574.87 387 574.87C390.57 574.87 393.46 576.14 393.46 577.72H395.5C395.5 575.11 391.69 573 387 573C382.31 573 378.5 575.11 378.5 577.72C378.5 580.32 382.31 582.43 387 582.43C390.57 582.43 393.46 583.71 393.46 585.28C393.46 586.86 390.57 588.13 387 588.13C383.43 588.13 380.54 586.86 380.54 585.28H378.5C378.5 587.89 382.31 590 387 590C391.69 590 395.5 587.89 395.5 585.28C395.5 582.68 391.69 580.57 387 580.57ZM412.5 574.87H419.98V590H422.02V574.87H429.5V573H412.5ZM453.74 573 446.51 590H448.73L450.46 585.92H459.54L461.27 590H463.49L456.26 573ZM451.26 584.05 455 575.25 458.74 584.05ZM480.5 590H482.54V582.52H487.15L494.84 590H497.5V589.6L490.22 582.52H492.4C495.22 582.52 497.5 580.39 497.5 577.76C497.5 575.13 495.22 573 492.4 573H480.5ZM482.54 580.65V574.87H492.4C494.09 574.87 495.46 576.16 495.46 577.76C495.46 579.36 494.09 580.65 492.4 580.65ZM514.5 574.87H521.98V590H524.02V574.87H531.5V573H514.5ZM582.5 590H584.54V582.43H597.46V590H599.5V573H597.46V580.57H584.54V573H582.5ZM616.5 590H633.5V588.13H618.54V582.43H632.14V580.57H618.54V574.87H633.5V573H616.5ZM650.5 590H652.54V582.52H657.15L664.84 590H667.5V589.6L660.22 582.52H662.4C665.22 582.52 667.5 580.39 667.5 577.76C667.5 575.13 665.22 573 662.4 573H650.5ZM652.54 580.65V574.87H662.4C664.09 574.87 665.46 576.16 665.46 577.76C665.46 579.36 664.09 580.65 662.4 580.65ZM684.5 590H701.5V588.13H686.54V582.43H700.14V580.57H686.54V574.87H701.5V573H684.5Z"/><text x="540" y="864" font-family="MTTM Lettering, sans-serif" font-size="63" font-weight="400" letter-spacing="0" text-anchor="middle" fill="#0E0E0D" data-field="title1">YOUR TITLE</text><text x="540" y="976" font-family="MTTM Lettering, sans-serif" font-size="63" font-weight="400" letter-spacing="0" text-anchor="middle" fill="#0E0E0D" data-field="title2">GOES HERE</text><path fill="#0E0E0D" d="M492 1294H495.84V1269.02L505.56 1291.12H510.44L520.16 1269.02V1294H524V1262H519.05L508 1287.12L496.95 1262H492Z M556 1265.52H570.08V1294H573.92V1265.52H588V1262H556Z M492 1329.52H506.08V1358H509.92V1329.52H524V1326H492Z M556 1358H559.84V1333.02L569.56 1355.12H574.44L584.16 1333.02V1358H588V1326H583.05L572 1351.12L560.95 1326H556Z"/></svg>