<svg xmlns="http://www.w3.org/2000/svg" viewBox="0 0 1080 1920" width="1080" height="1920" role="img" aria-label="Reel cover: Strength"><title>Reel cover: Strength</title><rect width="1080" height="1920" fill="#0E0E0D"/><path fill="#8F8B83" d="M433.02 585.09Q433.02 584.1 432.86 583.54Q432.71 582.97 432.17 582.7Q431.62 582.43 430.48 582.35Q429.34 582.26 427.36 582.23L421.21 582.14Q418.93 582.11 417.55 581.87Q416.16 581.62 415.45 581.1Q414.75 580.57 414.51 579.68Q414.27 578.8 414.27 577.47Q414.27 576.02 414.6 575.08Q414.92 574.14 415.78 573.61Q416.64 573.08 418.21 572.86Q419.78 572.65 422.27 572.65H427.01Q429.27 572.65 430.77 572.79Q432.28 572.93 433.16 573.45Q434.05 573.97 434.43 575.07Q434.81 576.17 434.81 578.08H432.69Q432.69 576.6 432.4 575.84Q432.12 575.08 431.47 574.8Q430.83 574.53 429.73 574.51Q428.64 574.48 427.01 574.48H422.38Q420.4 574.48 419.21 574.56Q418.02 574.64 417.41 574.91Q416.8 575.19 416.6 575.8Q416.39 576.41 416.39 577.47Q416.39 578.37 416.54 578.91Q416.68 579.45 417.19 579.73Q417.69 580.02 418.74 580.12Q419.79 580.23 421.61 580.25L428.2 580.34Q430.53 580.37 431.92 580.61Q433.31 580.85 434 581.38Q434.69 581.91 434.92 582.81Q435.14 583.71 435.14 585.09Q435.14 586.58 434.86 587.59Q434.58 588.61 433.77 589.21Q432.96 589.82 431.44 590.09Q429.91 590.35 427.42 590.35H422.24Q419.97 590.35 418.43 590.15Q416.89 589.96 415.98 589.35Q415.07 588.75 414.67 587.55Q414.27 586.36 414.27 584.37H416.39Q416.39 585.93 416.65 586.78Q416.9 587.63 417.54 588Q418.18 588.37 419.32 588.44Q420.47 588.52 422.24 588.52H427.31Q429.29 588.52 430.44 588.39Q431.59 588.26 432.14 587.9Q432.7 587.54 432.86 586.87Q433.02 586.19 433.02 585.09ZM456.25 590V574.77H447.75V573H466.87V574.77H458.37V590ZM480.28 573H491.66Q494.15 573 495.67 573.22Q497.19 573.44 497.98 573.99Q498.76 574.53 499.04 575.47Q499.32 576.41 499.32 577.85V578.29Q499.32 579.62 499 580.58Q498.69 581.53 497.79 582.13Q496.89 582.72 495.13 582.96L498.83 590H496.7L493.09 583.12Q492.86 583.13 492.63 583.13Q492.39 583.13 492.13 583.13H482.4V590H480.28ZM482.4 581.29H491.8Q493.69 581.29 494.78 581.16Q495.87 581.04 496.39 580.71Q496.9 580.39 497.05 579.81Q497.19 579.22 497.19 578.29V577.85Q497.19 576.8 496.99 576.19Q496.79 575.58 496.2 575.29Q495.6 575 494.41 574.92Q493.23 574.84 491.25 574.84H482.4ZM513.53 590V573H530.22V574.77H515.66V580.44H529.62V582.21H515.66V588.23H530.53V590ZM543.57 590V573H545.78L562.86 587.38H562.88V573H565.01V590H562.79L545.71 575.5H545.69V590ZM578.75 581.72V581.28Q578.75 579.02 578.97 577.49Q579.19 575.96 579.73 574.99Q580.27 574.03 581.21 573.52Q582.14 573.01 583.56 572.83Q584.98 572.65 586.97 572.65H591.13Q593.74 572.65 595.38 572.85Q597.01 573.04 597.89 573.61Q598.77 574.17 599.1 575.25Q599.43 576.33 599.43 578.08H597.31Q597.31 576.76 597.08 576.03Q596.84 575.29 596.2 574.96Q595.56 574.64 594.34 574.56Q593.11 574.48 591.13 574.48H586.97Q585.39 574.48 584.3 574.58Q583.22 574.67 582.54 575.01Q581.86 575.35 581.5 576.08Q581.14 576.81 581 578.07Q580.87 579.33 580.87 581.28V581.72Q580.87 583.6 581 584.84Q581.14 586.08 581.5 586.82Q581.86 587.57 582.54 587.93Q583.22 588.3 584.3 588.41Q585.39 588.52 586.97 588.52H591.87Q593.7 588.52 594.82 588.37Q595.94 588.22 596.52 587.73Q597.1 587.23 597.3 586.22Q597.5 585.21 597.5 583.48V582.83H589.36V581.06H599.62V583.48Q599.62 585.64 599.26 586.99Q598.89 588.34 598.02 589.08Q597.15 589.81 595.65 590.08Q594.15 590.35 591.87 590.35H586.97Q584.48 590.35 582.88 590.02Q581.27 589.68 580.37 588.77Q579.47 587.86 579.11 586.16Q578.75 584.46 578.75 581.72ZM621.17 590V574.77H612.67V573H631.79V574.77H623.29V590ZM645.2 590V573H647.32V580.44H662.91V573H665.03V590H662.91V582.21H647.32V590Z"/><text x="540" y="864" font-family="Michroma, sans-serif" font-size="54" font-weight="400" letter-spacing="16.2" text-anchor="middle" fill="#EFEBE3" data-field="title1">YOUR TITLE</text><text x="540" y="976" font-family="Michroma, sans-serif" font-size="54" font-weight="400" letter-spacing="16.2" text-anchor="middle" fill="#EFEBE3" data-field="title2">GOES HERE</text><path fill="#EFEBE3" d="M492 1294H495.84V1269.02L505.56 1291.12H510.44L520.16 1269.02V1294H524V1262H519.05L508 1287.12L496.95 1262H492Z M556 1265.52H570.08V1294H573.92V1265.52H588V1262H556Z M492 1329.52H506.08V1358H509.92V1329.52H524V1326H492Z M556 1358H559.84V1333.02L569.56 1355.12H574.44L584.16 1333.02V1358H588V1326H583.05L572 1351.12L560.95 1326H556Z"/></svg>