<svg xmlns="http://www.w3.org/2000/svg" viewBox="-177 -100 1895.65 480" role="img" aria-label="Make Time To Move"><title>Make Time To Move</title><rect x="-177" y="-100" width="1895.65" height="480" fill="#000000"/><path fill="#FFFFFF" d="M50.15 100V29.77L13.03 100H-12.88L-50 29.77V100H-77V0H-40.32L0.07 75.69L40.47 0H77V100Z M236.88 81.08H181.13L171.74 100H141.61L193.94 0H224.07L276.4 100H246.27ZM190.81 61.57H227.34L209.15 24.75Z M383.58 38.14 438.89 0H475.07L407.74 47.96L479.58 100H440.2L383.58 58.44V100H356.43V0H383.58Z M575.88 100V0H677.12V21.32H603.61V37.85H673.33V59.17H603.61V78.68H678.14V100Z M953.98 21.76V100H926.98V21.76H884.55V0H996.48V21.76Z M1136.02 100V0H1163.02V100Z M1408.66 100V29.77L1371.55 100H1345.64L1308.52 29.77V100H1281.52V0H1318.2L1358.59 75.69L1398.98 0H1435.52V100Z M1516.39 100V0H1617.63V21.32H1544.12V37.85H1613.85V59.17H1544.12V78.68H1618.65V100Z M222.47 201.76V280H195.47V201.76H153.03V180H264.97V201.76Z M486.06 230.07Q486.06 242.95 481.32 252.82Q476.59 262.68 467.79 269.3Q458.98 275.92 446.43 279.31Q433.87 282.69 418.22 282.69Q402.58 282.69 389.95 279.31Q377.32 275.92 368.44 269.3Q359.56 262.68 354.76 252.82Q349.96 242.95 349.96 230.07Q349.96 217.19 354.76 207.33Q359.56 197.47 368.44 190.84Q377.32 184.22 389.95 180.84Q402.58 177.45 418.22 177.45Q433.87 177.45 446.43 180.84Q458.98 184.22 467.79 190.84Q476.59 197.47 481.32 207.33Q486.06 217.19 486.06 230.07ZM458.76 230.07Q458.76 224.47 456.98 218.9Q455.2 213.33 450.65 208.89Q446.1 204.45 438.24 201.69Q430.38 198.92 418.22 198.92Q410.07 198.92 403.89 200.2Q397.7 201.47 393.19 203.73Q388.68 205.98 385.62 209Q382.56 212.02 380.74 215.48Q378.92 218.94 378.16 222.69Q377.39 226.43 377.39 230.07Q377.39 233.78 378.16 237.57Q378.92 241.35 380.74 244.81Q382.56 248.27 385.62 251.25Q388.68 254.24 393.19 256.46Q397.7 258.68 403.89 259.95Q410.07 261.22 418.22 261.22Q430.38 261.22 438.24 258.46Q446.1 255.69 450.65 251.25Q455.2 246.81 456.98 241.24Q458.76 235.68 458.76 230.07Z M781.66 280V209.77L744.54 280H718.63L681.51 209.77V280H654.51V180H691.19L731.58 255.69L771.98 180H808.51V280Z M1008.56 230.07Q1008.56 242.95 1003.83 252.82Q999.1 262.68 990.29 269.3Q981.49 275.92 968.93 279.31Q956.38 282.69 940.73 282.69Q925.08 282.69 912.46 279.31Q899.83 275.92 890.95 269.3Q882.07 262.68 877.27 252.82Q872.46 242.95 872.46 230.07Q872.46 217.19 877.27 207.33Q882.07 197.47 890.95 190.84Q899.83 184.22 912.46 180.84Q925.08 177.45 940.73 177.45Q956.38 177.45 968.93 180.84Q981.49 184.22 990.29 190.84Q999.1 197.47 1003.83 207.33Q1008.56 217.19 1008.56 230.07ZM981.27 230.07Q981.27 224.47 979.49 218.9Q977.7 213.33 973.16 208.89Q968.61 204.45 960.75 201.69Q952.89 198.92 940.73 198.92Q932.58 198.92 926.39 200.2Q920.21 201.47 915.7 203.73Q911.18 205.98 908.13 209Q905.07 212.02 903.25 215.48Q901.43 218.94 900.67 222.69Q899.9 226.43 899.9 230.07Q899.9 233.78 900.67 237.57Q901.43 241.35 903.25 244.81Q905.07 248.27 908.13 251.25Q911.18 254.24 915.7 256.46Q920.21 258.68 926.39 259.95Q932.58 261.22 940.73 261.22Q952.89 261.22 960.75 258.46Q968.61 255.69 973.16 251.25Q977.7 246.81 979.49 241.24Q981.27 235.68 981.27 230.07Z M1165.05 280H1133.61L1083.03 180H1113.16L1149.55 255.25L1185.87 180H1216Z M1307.39 280V180H1408.63V201.32H1335.12V217.85H1404.84V239.17H1335.12V258.68H1409.65V280Z"/></svg>