<svg xmlns="http://www.w3.org/2000/svg" viewBox="-90 -40 1300 180" role="img" aria-label="MAKETIOV"><title>MAKETIOV</title><rect x="-90" y="-40" width="1300" height="180" fill="#000000"/><path fill="#FFFFFF" d="M-50 100H-38V21.93L-7.61 91H7.61L38 21.93V100H50V0H34.54L0 78.5L-34.54 0H-50Z M152.58 0 110.08 100H123.12L133.32 76H186.68L196.88 100H209.92L167.42 0ZM137.99 65 160 13.22 182.01 65H137.99Z M270 100H282V60.34L351.32 100H370V96.86L288.08 50L370 3.14V0H351.32L282 39.66V0H270Z M430 100H530V89H442V55.5H522V44.5H442V11H530V0H430Z M590 11H634V100H646V11H690V0H590Z M794 100H806V0H794Z M960 100C987.61 100 1010 77.61 1010 50C1010 22.39 987.61 0 960 0C932.39 0 910 22.39 910 50C910 77.61 932.39 100 960 100ZM960 89C939.01 89 922 71.54 922 50C922 28.46 939.01 11 960 11C980.99 11 998 28.46 998 50C998 71.54 980.99 89 960 89Z M1156.88 0 1120 86.78 1083.12 0H1070.08L1112.58 100H1127.42L1169.92 0H1156.88Z"/></svg>